<svg width="134" height="134" viewBox="0 0 134 134" xmlns="http://www.w3.org/2000/svg"><path d="M134 134s0-9.212-.762-14.034c-.634-3.804-5.901-8.83-28.299-17.066-22.054-8.095-20.696-4.15-20.696-19.058 0-9.667 4.924-4.047 8.059-22.407 1.22-7.22 2.196-2.41 4.847-13.995 1.396-6.068-.938-6.523-.66-9.417.28-2.895.558-5.482 1.08-11.409C98.193 19.301 91.389 0 67 0 42.61 0 35.807 19.3 36.47 26.66c.519 5.9.8 8.516 1.079 11.408.278 2.894-2.059 3.352-.663 9.42 2.654 11.546 3.63 6.736 4.85 13.995 3.145 18.35 8.057 12.738 8.057 22.407 0 14.934 1.36 10.99-20.694 19.058C6.692 111.145 1.386 116.208.8 120.014 0 124.788 0 134 0 134h134z" fill="#000" fill-rule="evenodd" fill-opacity=".05"/></svg>